<svg width="24" height="24" viewBox="0 0 24 24" fill="none" xmlns="http://www.w3.org/2000/svg">
<path d="M10.2682 21.1257C10.2682 21.5319 10.1478 21.9289 9.92212 22.2667C9.69646 22.6044 9.37573 22.8676 9.00047 23.023C8.62522 23.1785 8.2123 23.2191 7.81393 23.1399C7.41556 23.0607 7.04964 22.8651 6.76243 22.5779C6.47522 22.2906 6.27963 21.9247 6.20039 21.5264C6.12115 21.128 6.16182 20.7151 6.31726 20.3398C6.47269 19.9646 6.73591 19.6438 7.07363 19.4182C7.41135 19.1925 7.8084 19.0721 8.21458 19.0721C8.7584 19.0748 9.27919 19.292 9.66374 19.6765C10.0483 20.0611 10.2655 20.5819 10.2682 21.1257ZM18.8935 19.0721C18.4874 19.0721 18.0903 19.1925 17.7526 19.4182C17.4149 19.6438 17.1516 19.9646 16.9962 20.3398C16.8408 20.7151 16.8001 21.128 16.8793 21.5264C16.9586 21.9247 17.1542 22.2906 17.4414 22.5779C17.7286 22.8651 18.0945 23.0607 18.4929 23.1399C18.8912 23.2191 19.3042 23.1785 19.6794 23.023C20.0547 22.8676 20.3754 22.6044 20.6011 22.2667C20.8267 21.9289 20.9472 21.5319 20.9472 21.1257C20.9445 20.5819 20.7272 20.0611 20.3427 19.6765C19.9581 19.292 19.4374 19.0748 18.8935 19.0721ZM23.9558 6.67833L21.4708 15.3447C21.2977 15.9441 20.9349 16.4711 20.4369 16.8469C19.9389 17.2227 19.3326 17.427 18.7087 17.4292H8.3994C7.77554 17.427 7.16916 17.2227 6.67118 16.8469C6.17319 16.4711 5.81042 15.9441 5.63725 15.3447L3.16261 6.69886C3.16261 6.68859 3.15234 6.66806 3.15234 6.65779L2.23847 3.46437H1.23219C0.90539 3.46437 0.591979 3.33455 0.360899 3.10347C0.129819 2.87239 0 2.55898 0 2.23219C0 1.90539 0.129819 1.59198 0.360899 1.3609C0.591979 1.12982 0.90539 1 1.23219 1H2.54652C2.9927 1.00338 3.42602 1.14985 3.78276 1.41787C4.13949 1.68588 4.40081 2.06129 4.52828 2.48889L5.2676 5.10729H22.7646C22.9552 5.10838 23.143 5.1533 23.3135 5.23858C23.4839 5.32386 23.6325 5.44721 23.7476 5.59908C23.8628 5.75096 23.9414 5.92729 23.9775 6.11444C24.0136 6.30158 24.0062 6.49452 23.9558 6.67833ZM21.132 7.57166H5.9761L7.99894 14.667C8.02522 14.7528 8.07825 14.828 8.1503 14.8816C8.22234 14.9352 8.30963 14.9643 8.3994 14.9648H18.7087C18.7985 14.9643 18.8858 14.9352 18.9578 14.8816C19.0299 14.828 19.0829 14.7528 19.1092 14.667L21.132 7.57166Z" fill="white"/>
</svg>
