<svg width="24" height="24" viewBox="0 0 24 24" fill="none" xmlns="http://www.w3.org/2000/svg">
<g clip-path="url(#clip0_360_59)">
<path fill-rule="evenodd" clip-rule="evenodd" d="M10.2928 3.30042C10.2928 3.30043 10.2928 3.30042 10.2928 3.30042L4.41049 6.86512C3.92608 7.15866 3.52552 7.57216 3.24754 8.06566C2.96956 8.55917 2.82352 9.11601 2.82353 9.68242V17.0848C2.82353 17.9585 3.17059 18.7963 3.78835 19.4141C4.40612 20.0319 5.24399 20.3789 6.11765 20.3789H17.8824C18.756 20.3789 19.5939 20.0319 20.2116 19.4141C20.8294 18.7963 21.1765 17.9585 21.1765 17.0848V9.6816C21.1765 9.68149 21.1765 9.68171 21.1765 9.6816C21.1763 9.11544 21.0302 8.55856 20.7523 8.0653C20.4743 7.57196 20.0738 7.1586 19.5895 6.86513L13.7072 3.30042C13.7072 3.30042 13.7072 3.30043 13.7072 3.30042C13.1924 2.98847 12.6019 2.82353 12 2.82353C11.3981 2.82353 10.8076 2.98847 10.2928 3.30042ZM8.82953 0.885657C9.78558 0.306309 10.8821 0 12 0C13.1179 0 14.2144 0.306309 15.1705 0.885657L21.0528 4.45036C21.0528 4.45037 21.0528 4.45036 21.0528 4.45036C21.9522 4.99538 22.6959 5.76305 23.2122 6.67926C23.7284 7.59548 23.9998 8.62931 24 9.68095V17.0848C24 18.7073 23.3555 20.2634 22.2082 21.4106C21.0609 22.5579 19.5049 23.2024 17.8824 23.2024H6.11765C4.49515 23.2024 2.9391 22.5579 1.79182 21.4106C0.644536 20.2634 7.83197e-10 18.7073 7.83197e-10 17.0848V9.68248C7.83197e-10 9.68247 7.83197e-10 9.68249 7.83197e-10 9.68248C-1.68288e-05 8.63059 0.271195 7.59643 0.787446 6.67993C1.3037 5.76343 2.04755 4.99552 2.94716 4.45037C2.94716 4.45037 2.94715 4.45038 2.94716 4.45037L8.82953 0.885657ZM7.05882 17.0848C7.05882 16.3051 7.69089 15.673 8.47059 15.673H15.5294C16.3091 15.673 16.9412 16.3051 16.9412 17.0848C16.9412 17.8645 16.3091 18.4966 15.5294 18.4966H8.47059C7.69089 18.4966 7.05882 17.8645 7.05882 17.0848Z" fill="white"/>
</g>
<defs>
<clipPath id="clip0_360_59">
<rect width="24" height="24" fill="white"/>
</clipPath>
</defs>
</svg>
