<svg width="24" height="24" viewBox="0 0 24 24" fill="none" xmlns="http://www.w3.org/2000/svg">
<g clip-path="url(#clip0_360_57)">
<path fill-rule="evenodd" clip-rule="evenodd" d="M11.7 13.2C14.8148 13.2 17.6475 14.0328 19.7314 15.2052C20.7714 15.7932 21.6606 16.4832 22.3028 17.2332C22.9346 17.9724 23.4 18.8556 23.4 19.8C23.4 20.814 22.8657 21.6132 22.0961 22.1832C21.3681 22.7232 20.4074 23.0808 19.3869 23.3304C17.3355 23.8308 14.5977 24 11.7 24C8.8023 24 6.0645 23.832 4.0131 23.3304C2.9926 23.0808 2.0319 22.7232 1.3039 22.1832C0.533 21.612 0 20.814 0 19.8C0 18.8556 0.4654 17.9724 1.0972 17.2332C1.7394 16.4832 2.6273 15.7932 3.6686 15.2052C5.7525 14.0328 8.5865 13.2 11.7 13.2ZM11.7 15.6C9.0701 15.6 6.7041 16.308 5.0232 17.2548C4.1821 17.7276 3.5477 18.2412 3.1382 18.7212C2.717 19.2132 2.6 19.5852 2.6 19.8C2.6 19.9464 2.6481 20.1012 2.9315 20.3112C3.2552 20.5512 3.8181 20.7996 4.6787 21.0096C6.3921 21.4296 8.8543 21.6 11.7 21.6C14.547 21.6 17.0079 21.4284 18.72 21.0096C19.5819 20.7996 20.1448 20.5512 20.4685 20.3112C20.7519 20.1012 20.8 19.9464 20.8 19.8C20.8 19.584 20.683 19.2132 20.2631 18.7212C19.8523 18.2412 19.2179 17.7276 18.3768 17.2548C16.6959 16.3068 14.3299 15.6 11.7 15.6ZM11.7 0C13.4239 0 15.0772 0.632141 16.2962 1.75736C17.5152 2.88258 18.2 4.4087 18.2 6C18.2 7.5913 17.5152 9.11742 16.2962 10.2426C15.0772 11.3679 13.4239 12 11.7 12C9.97609 12 8.32279 11.3679 7.10381 10.2426C5.88482 9.11742 5.2 7.5913 5.2 6C5.2 4.4087 5.88482 2.88258 7.10381 1.75736C8.32279 0.632141 9.97609 0 11.7 0V0ZM11.7 2.4C11.1878 2.4 10.6807 2.49312 10.2075 2.67403C9.73436 2.85495 9.30443 3.12012 8.94228 3.45442C8.58013 3.78871 8.29286 4.18557 8.09687 4.62234C7.90088 5.05911 7.8 5.52724 7.8 6C7.8 6.47276 7.90088 6.94089 8.09687 7.37766C8.29286 7.81443 8.58013 8.21129 8.94228 8.54559C9.30443 8.87988 9.73436 9.14505 10.2075 9.32597C10.6807 9.50688 11.1878 9.6 11.7 9.6C12.7343 9.6 13.7263 9.22072 14.4577 8.54559C15.1891 7.87045 15.6 6.95478 15.6 6C15.6 5.04522 15.1891 4.12955 14.4577 3.45442C13.7263 2.77928 12.7343 2.4 11.7 2.4Z" fill="white"/>
</g>
<defs>
<clipPath id="clip0_360_57">
<rect width="24" height="24" fill="white"/>
</clipPath>
</defs>
</svg>
